<svg width="16" height="17" viewBox="0 0 16 17" fill="none" xmlns="http://www.w3.org/2000/svg">
<g clip-path="url(#clip0_114_907)">
<path fill-rule="evenodd" clip-rule="evenodd" d="M7.41334 2.60438C7.41334 1.90108 7.99721 1.25109 8.78749 1.33011C10.442 1.49589 11.9884 2.22874 13.1644 3.40439C14.3403 4.58004 15.0735 6.12617 15.2396 7.78066C15.3187 8.56998 14.6691 9.15504 13.9654 9.15508C13.9654 9.15508 13.9655 9.15508 13.9654 9.15508L8.7237 9.15574C8.37619 9.15574 8.04284 9.01769 7.79711 8.77197C7.55139 8.52625 7.41334 8.19297 7.41334 7.84547V2.60438ZM8.72362 2.64093C10.0522 2.7893 11.2916 3.38489 12.238 4.33099C13.1842 5.27706 13.7801 6.51635 13.9288 7.84482L8.72362 7.84547V2.64093ZM6.04897 2.23043C6.19369 2.56205 6.04217 2.94819 5.71055 3.09291C4.82781 3.47812 4.05288 4.0737 3.4535 4.82759C2.85412 5.58148 2.44854 6.47073 2.27222 7.41757C2.09591 8.36442 2.15422 9.34004 2.44206 10.2591C2.7299 11.1783 3.23851 12.0129 3.92341 12.69C4.60832 13.3671 5.44868 13.8662 6.37101 14.1435C7.29335 14.4208 8.26957 14.468 9.21434 14.2809C10.1591 14.0937 11.0437 13.678 11.7907 13.0701C12.5377 12.4621 13.1244 11.6805 13.4995 10.7934C13.6404 10.4601 14.0248 10.3042 14.358 10.4451C14.6913 10.586 14.8472 10.9704 14.7063 11.3037C14.2478 12.3879 13.5307 13.3433 12.6177 14.0863C11.7047 14.8294 10.6236 15.3375 9.46891 15.5662C8.31419 15.7949 7.12102 15.7372 5.99373 15.3983C4.86643 15.0593 3.83933 14.4494 3.00222 13.6218C2.16511 12.7942 1.54348 11.7741 1.19167 10.6507C0.839863 9.52739 0.768595 8.33496 0.984095 7.1777C1.1996 6.02044 1.6953 4.93359 2.42788 4.01217C3.16046 3.09075 4.1076 2.36281 5.18649 1.892C5.51811 1.74729 5.90426 1.8988 6.04897 2.23043Z" fill="#FAFAFA"/>
</g>
<defs>
<clipPath id="clip0_114_907">
<rect width="15.7233" height="15.7233" fill="white" transform="translate(0.20752 0.638367)"/>
</clipPath>
</defs>
</svg>
