<svg width="17" height="17" viewBox="0 0 17 17" fill="none" xmlns="http://www.w3.org/2000/svg">
<path fill-rule="evenodd" clip-rule="evenodd" d="M11.5205 1.83989C11.9898 1.37076 12.6262 1.10725 13.2897 1.10733C13.9533 1.10741 14.5896 1.37108 15.0587 1.84034C15.5279 2.30959 15.7914 2.94599 15.7913 3.60953C15.7912 4.27307 15.5275 4.9094 15.0583 5.37854L13.6947 6.74233C13.6764 6.7666 13.6562 6.78989 13.6341 6.81199C13.612 6.83407 13.5888 6.85424 13.5645 6.87251L6.31427 14.1239L6.3135 14.1246C6.08569 14.3517 5.80561 14.5194 5.49786 14.613L2.64401 15.4784C2.47411 15.5295 2.29357 15.5336 2.12152 15.4904C1.94948 15.4471 1.79235 15.3581 1.6668 15.2328C1.54126 15.1074 1.45199 14.9504 1.40846 14.7784C1.36493 14.6065 1.36877 14.4259 1.41956 14.2559L1.42038 14.2532L2.28581 11.4021L2.28635 11.4003C2.38073 11.0925 2.54927 10.8126 2.77716 10.5852C2.77734 10.585 2.77752 10.5849 2.7777 10.5847L10.0276 3.3332C10.0456 3.30944 10.0654 3.28662 10.0871 3.26494C10.1087 3.2433 10.1315 3.22349 10.1552 3.20552L11.5205 1.83989ZM10.5547 4.65911L3.70357 11.5118L3.70284 11.5125C3.62697 11.5882 3.57082 11.6813 3.53929 11.7837C3.53921 11.7839 3.53913 11.7842 3.53906 11.7844L2.85259 14.046L5.11659 13.3595C5.21897 13.3283 5.31216 13.2726 5.38801 13.1971C5.38817 13.197 5.38786 13.1973 5.38801 13.1971L12.2399 6.34424L10.5547 4.65911ZM13.1663 5.41767L11.4811 3.7325L12.4469 2.76651C12.4469 2.76655 12.4469 2.76648 12.4469 2.76651C12.6704 2.54314 12.9736 2.41756 13.2896 2.4176C13.6056 2.41764 13.9087 2.54322 14.1321 2.76672C14.3556 2.99022 14.4811 3.29333 14.481 3.60937C14.481 3.9254 14.3554 4.22848 14.1319 4.45192L13.1663 5.41767Z" fill="#09090B"/>
</svg>
