<svg width="53" height="53" viewBox="0 0 53 53" fill="none" xmlns="http://www.w3.org/2000/svg">
<rect x="0.876221" y="0.771912" width="51.8429" height="51.8429" rx="5.18429" fill="#FFBAE0"/>
<path fill-rule="evenodd" clip-rule="evenodd" d="M16.7169 18.0926C18.0278 16.7815 19.7639 15.9819 21.6123 15.8378C23.4607 15.6938 25.2997 16.2149 26.7978 17.3072C28.3806 16.162 30.3364 15.6544 32.2763 15.8851C34.2163 16.1158 35.9985 17.068 37.2685 18.5525C38.5386 20.037 39.2036 21.945 39.1314 23.8973C39.0591 25.8496 38.2549 27.7033 36.8786 29.0898L29.5468 36.4217C28.8176 37.1506 27.8288 37.5601 26.7978 37.5601C25.7668 37.5601 24.778 37.1506 24.0488 36.4217L16.7169 29.0911C15.2587 27.6328 14.4395 25.6549 14.4395 23.5925C14.4395 21.5302 15.2587 19.551 16.7169 18.0926Z" fill="#FF85C8"/>
</svg>
